<svg version="1.2" xmlns="http://www.w3.org/2000/svg" viewBox="0 0 34 38" width="34" height="38">
	<title>logo_1</title>
	<defs>
		<clipPath clipPathUnits="userSpaceOnUse" id="cp1">
			<path d="m0 0h184v38h-184z"/>
		</clipPath>
		<linearGradient id="g1" x2="1" gradientUnits="userSpaceOnUse" gradientTransform="matrix(0,31.477,-31.226,0,15.951,.003)">
			<stop offset=".308" stop-color="#1ea659"/>
			<stop offset=".827" stop-color="#88f2b6"/>
		</linearGradient>
		<linearGradient id="g2" x2="1" gradientUnits="userSpaceOnUse" gradientTransform="matrix(0,31.477,-31.226,0,15.951,.003)">
			<stop offset=".346" stop-color="#1ea659"/>
			<stop offset=".808" stop-color="#88f2b6"/>
		</linearGradient>
	</defs>
	<style>
		.s0 { fill: url(#g1) } 
		.s1 { fill: url(#g2) } 
		.s2 { fill: #247ba0 } 
	</style>
	<g id="Clip-Path" clip-path="url(#cp1)">
		<g>
			<path class="s0" d="m19.5 0.9h-7.1v10.9c-0.1 2-1.7 3.6-3.6 3.6h-10.8v7.2h7.8c1.9 0 3.7-0.7 5.1-2.1l6.5-6.6c1.4-1.4 2.1-3.2 2.1-5.1z"/>
			<path class="s1" d="m12.4 37.1h7.1v-10.9c0.1-2 1.7-3.6 3.6-3.6h10.8v-7.2h-7.8c-1.9 0-3.7 0.7-5.1 2.1l-6.5 6.6c-1.4 1.4-2.1 3.2-2.1 5.1z"/>
			<path class="s2" d="m55 30.5q-1.9 0-3.5-0.7-1.6-0.7-2.5-1.9-0.9-1.3-1-3h4.1q0.1 1.1 0.8 1.8 0.7 0.7 2 0.7 1.4 0 2.1-0.7 0.8-0.6 0.8-1.6 0-0.9-0.5-1.4-0.6-0.6-1.3-0.9-0.8-0.3-2.1-0.7-1.9-0.5-3-1-1.2-0.6-2-1.6-0.8-1.1-0.8-2.9 0-1.7 0.8-2.9 0.9-1.3 2.4-1.9 1.5-0.7 3.4-0.7 2.9 0 4.7 1.4 1.9 1.4 2.1 4h-4.2q0-1-0.8-1.6-0.8-0.7-2-0.7-1.1 0-1.8 0.6-0.7 0.6-0.7 1.7 0 0.7 0.5 1.2 0.5 0.5 1.3 0.8 0.7 0.4 2.1 0.8 1.8 0.5 2.9 1 1.2 0.6 2 1.7 0.9 1.1 0.9 2.8 0 1.5-0.8 2.8-0.8 1.4-2.3 2.1-1.5 0.8-3.6 0.8zm9-7.8q0-2.2 0.9-4 0.9-1.8 2.4-2.7 1.6-1 3.5-1 1.6 0 2.9 0.7 1.2 0.7 2 1.7v-2.1h3.8v15h-3.8v-2.2q-0.7 1.1-2 1.8-1.3 0.7-3 0.7-1.8 0-3.4-1-1.5-1-2.4-2.8-0.9-1.8-0.9-4.1zm11.7 0.1q0-1.4-0.5-2.4-0.6-1-1.5-1.5-0.9-0.5-2-0.5-1 0-1.9 0.5-0.9 0.5-1.4 1.5-0.6 1-0.6 2.3 0 1.4 0.6 2.4 0.5 1 1.4 1.6 0.9 0.5 1.9 0.5 1.1 0 2-0.5 0.9-0.5 1.5-1.5 0.5-1 0.5-2.4zm17.8-7.5h3.8v15h-3.8v-1.9q-0.8 1-1.9 1.5-1.2 0.6-2.6 0.6-1.7 0-3.1-0.7-1.3-0.8-2.1-2.2-0.7-1.5-0.7-3.5v-8.8h3.7v8.3q0 1.7 0.9 2.7 0.9 1 2.4 1 1.6 0 2.5-1 0.9-1 0.9-2.7zm-0.3-7.1v3.1l-6.2 2.9v-2.7zm6.8 14.4q0-2.2 0.9-4 0.9-1.8 2.5-2.7 1.5-1 3.5-1 1.4 0 2.7 0.7 1.4 0.6 2.1 1.7v-7.2h3.9v20.1h-3.9v-2.2q-0.7 1.1-1.9 1.8-1.3 0.7-3 0.7-1.9 0-3.4-1-1.6-1-2.5-2.8-0.9-1.7-0.9-4.1zm11.8 0.1q0-1.4-0.6-2.4-0.5-1-1.4-1.5-0.9-0.5-2-0.5-1 0-1.9 0.5-0.9 0.5-1.5 1.5-0.5 1-0.5 2.3 0 1.4 0.5 2.4 0.6 1 1.5 1.6 0.9 0.5 1.9 0.5 1.1 0 2-0.5 0.9-0.5 1.4-1.5 0.6-1 0.6-2.4zm21.3-0.3q0 0.8-0.1 1.4h-10.9q0.1 1.7 1.1 2.6 1 0.9 2.5 0.9 2.1 0 3-1.8h4q-0.6 2.2-2.4 3.6-1.9 1.4-4.5 1.4-2.2 0-3.9-1-1.7-1-2.7-2.7-0.9-1.8-0.9-4.1 0-2.3 0.9-4.1 1-1.8 2.7-2.7 1.7-1 3.9-1 2.1 0 3.8 1 1.7 0.9 2.6 2.6 0.9 1.7 0.9 3.9zm-11-1.1h7.1q0-1.5-1-2.4-1.1-0.8-2.5-0.8-1.4 0-2.4 0.8-1 0.9-1.2 2.4zm36.4-10h4.3v18.9h-3.8v-12.3l-5 12.3h-2.9l-5.1-12.3v12.3h-3.7v-18.9h4.3l5.9 14.1zm20.8 18.9l-1.3-3.6h-7.5l-1.2 3.6h-4l6.8-19h4.4l6.7 19zm-7.7-6.6h5.5l-2.7-8z"/>
		</g>
	</g>
</svg>